<?xml version="1.0" encoding="UTF-8"?>
<svg id="_レイヤー_1" data-name="レイヤー_1" xmlns="http://www.w3.org/2000/svg" version="1.1" viewBox="0 0 512 512">
  <!-- Generator: Adobe Illustrator 30.5.1, SVG Export Plug-In . SVG Version: 2.1.4 Build 3)  -->
  <defs>
    <style>
      .st0 {
        fill: #ca806e;
      }

      .st1 {
        fill: #fff;
      }
    </style>
  </defs>
  <rect class="st1" width="512" height="512"/>
  <path class="st0" d="M75.3820157,405.0227295c15.810334,0,35.5532167-7.8194799,45.923991-18.1885189l19.918595-19.9194751c4.365489,5.3269553,9.2511425,10.3567419,14.5596771,14.9860539,19.1096486,16.6653067,53.1873956,36.5313181,107.0132624,36.5313181,88.1932633,0,154.7002098-64.1913852,154.7002098-149.3149625,0-47.6014709-20.7950374-90.0184474-58.6427291-119.833232l45.8293482-45.8297757c7.2305494-7.228349,10.5434625-15.2691461,9.8458192-23.899339-.629242-7.7848768-4.6284318-15.4133107-11.8869955-22.6736537-7.5557072-7.5539406-15.5031378-11.58332-23.6223764-11.9768383-8.140262-.3939552-16.0570377,3.0433974-22.9483969,9.9369507l-62.4218778,62.4205702c-53.2237841-12.108734-105.5938969-2.1100052-143.9157332,27.5439609-37.701333,29.1723779-58.4643638,73.3202728-58.4643638,124.3113317,0,19.1131692,7.4242295,29.8560015,14.7283858,35.7981916l-33.329708,33.329708c-10.1871657,10.1849842-14.711298,25.331404-16.1836934,31.3708899-2.4539985,10.0693054-3.9272741,23.5233454,2.985995,30.4348729,3.2502328,3.2524081,8.7520139,4.9719724,15.9106916,4.9719724l-.0000566-.0000503-.000044.0000251ZM376.7043506,201.518166c12.4786168,20.0689019,18.8055392,42.8122457,18.8055392,67.5989537,0,36.0567335-13.8694775,68.7650456-39.0527875,92.0999604-24.5163467,22.7170395-57.7785587,35.2271913-93.6595612,35.2271913-47.0151558,0-76.2848044-16.920328-92.5605126-31.1140831-13.0885958-11.4145988-28.3730756-31.2990434-28.3730756-49.7697681,0-27.8949704,21.6140554-30.9063895,30.9068296-30.9063895,3.721762,0,11.6109257,2.1682972,19.2761756,4.2752093,23.8476105,6.5556897,56.5095002,15.5338178,76.3930394-4.3540971,2.0771374-2.0762572,3.2208731-4.8370055,3.2208731-7.7739376,0-2.9364794-1.1437357-5.6976553-3.2199929-7.7721522-4.174443-4.1788187-10.8028595-4.2322824-15.4146184-.1262156-4.766014,4.2410338-10.8160116,6.0837456-19.5995731,5.809411l109.7437583-109.7437834c13.6661595,10.442646,24.9396554,22.7279912,33.5339061,36.549701v.0000126-.0000126ZM371.6184598,70.387768c3.3032565-3.3028227,6.717816-6.7169484,15.4794739,2.0420817,8.7572571,8.7581562,5.3418426,12.174476,2.0403465,15.4777325l-182.246786,182.2467734c-3.2357604-.8369859-6.4071306-1.7094802-9.0618443-2.4395387-7.0872461-1.9474263-13.4799168-3.704209-18.9979054-4.5377246l192.7867153-192.7893432v.0000189ZM163.1901066,162.1945646c29.9944639-23.2091393,69.4460161-32.3936911,111.646095-26.1188869l-153.1213083,153.123471c-4.2011623-2.5043942-8.4566559-8.0197549-8.4566559-20.0820289,0-44.0335365,17.7327825-82.0061361,49.9318944-106.9225552h-.0000251ZM88.2155713,353.7928443l32.0229596-32.0229407c.9706451,8.485563,3.8777522,17.4970116,8.5605279,26.4769l-23.0641008,23.0623405h-.0004401c-7.5780382,7.5784909-21.8778532,11.1955133-29.2674608,11.7467728.5499581-7.3865396,4.1665467-21.6811113,11.7485268-29.2630725h-.0000126Z"/>
</svg>