<?xml version="1.0" encoding="UTF-8"?>
<svg id="_レイヤー_1" data-name="レイヤー_1" xmlns="http://www.w3.org/2000/svg" version="1.1" viewBox="0 0 800 180">
  <!-- Generator: Adobe Illustrator 30.4.0, SVG Export Plug-In . SVG Version: 2.1.4 Build 226)  -->
  <defs>
    <style>
      .st0 {
        fill: #ca806e;
      }
    </style>
  </defs>
  <path class="st0" d="M143.6711674,51.1872647l21.6298157-21.6298157c3.41254-3.4115059,4.9761037-7.2066639,4.6467419-11.2794786-.2967876-3.674168-2.1845426-7.2749147-5.6105259-10.7014151-3.5655872-3.5650701-7.3167959-5.4667856-11.1486646-5.6524071-3.844278-.1975137-7.578424,1.4363691-10.8306779,4.6896572l-29.4605608,29.4600438c-25.1214646-5.7139362-49.8365267-.9958412-67.9229884,12.999709-17.7938106,13.7680476-27.5929708,34.6041892-27.5929708,58.6703517,0,9.0204806,3.5040581,14.0906877,6.9512405,16.8951751l-15.730258,15.730258c-4.8065108,4.8059938-6.9429677,11.955265-7.6384019,14.806287-1.1576783,4.7522204-1.8531126,11.10213,1.4094824,14.364725,1.5340918,1.5346089,4.1307245,2.3458627,7.5091391,2.3458627,7.4620874,0,16.7798726-3.6901966,21.6742822-8.5846062l9.4010305-9.4010305c2.0599332,2.5139044,4.3659829,4.8876879,6.8716145,7.0732646,9.0194465,7.8653875,25.1028507,17.2410825,50.5061084,17.2410825,41.6236805,0,73.0123264-30.2961161,73.0123264-70.4710182,0-22.4664051-9.8141547-42.4856054-27.6767331-56.5566451ZM149.6948175,13.9512833c1.5594273-1.5583932,3.172111-3.1690087,7.3059378.963784,4.1327927,4.1333098,2.5211432,5.7454764.963267,7.3049037l-86.0141036,86.0135866c-1.4720456-.3805499-2.9047954-.7740261-4.2729137-1.1504396-3.3463574-.9193176-6.3649041-1.7491853-8.9698096-2.1426614L149.6948175,13.9512833ZM24.2084847,155.9749915c-3.5769623,3.5764453-10.3260357,5.2837494-13.8135481,5.5438263.2595599-3.4864783,1.9663469-10.2329664,5.5443433-13.8109628l15.1144497-15.1139326c.4581076,4.005081,1.8298453,8.2583467,4.0397234,12.4961008l-10.8849683,10.8849683ZM31.750198,117.221981c-1.9828925-1.1819797-3.9916376-3.7853341-3.9916376-9.4780712,0-20.7818513,8.3695128-38.7033736,23.5661736-50.4631931,14.1563532-10.9547703,32.7743439-15.2897301,52.6932362-12.327025L31.750198,117.221981ZM142.5393417,151.211913c-11.5700616,10.721063-27.2687795,16.6257912-44.2037675,16.6257912-22.1892655,0-36.0038477-7.9858605-43.6846478-14.6847799-6.1777314-5.3871597-13.391117-14.7711275-13.391117-23.489133,0-13.1656825,10.2009092-14.5870571,14.5865401-14.5870571,1.756424,0,5.4786778,1.0232449,9.0985554,2.018052,11.2536261,3.0935192,26.6684827,7.3302392,36.0534846-2.0552797.9803297-.9798126,1.5201314-2.2827824,1.5201314-3.6689975,0-1.385698-.5398018-2.6886678-1.5190973-3.6679634-1.9704833-1.9725515-5.0981279-1.99737-7.2754318-.059978-2.2496911,2.0020234-5.1069177,2.8660165-9.2505685,2.7419241l51.7951178-51.7946007c11.5085325,8.7893586,24.7021358,24.2915969,24.7021358,49.1540187,0,17.0177163-6.5458721,32.4548061-18.4313351,43.4680032ZM263.0867338,122.8564851c-.176767-.2803065-.472779-.4633428-.80227-.4957878-.0355473-.0031669-.0700605-.0052351-.1045737-.0052351-.2939438,0-.5763832.1202791-.7792613.3367944-3.1881396,3.3826802-6.4369035,5.9003333-9.6563893,7.4849669-3.484087,1.7132502-7.6355581,2.5814443-12.3413732,2.5814443-6.5707552,0-11.8674955-2.2425817-15.7417624-6.6669914-3.8742669-4.4223415-5.8386103-10.1866903-5.8386103-17.1329541,0-4.9495402.9947425-9.5329433,2.9569529-13.6205586,1.9622751-4.0928505,4.7215205-7.3248748,8.2025051-9.6061707,3.4798859-2.2832995,7.4838682-3.4412363,11.8989064-3.4412363,2.6462696,0,5.1325764.4341294,7.3907989,1.2907545,2.2540214.855591,4.3177679,2.0856565,6.1335235,3.6556188,1.5323468,1.3273359,2.9977354,2.9297431,4.3543493,4.763337.2019086.2740373.5219635.4340647.8608261.4340647h.0303768c.350367-.0104703.6735889-.1913737.8660613-.4842834l6.802976-10.3874355c.2740373-.419458.2216858-.9727678-.1276471-1.332571-2.9464827-3.0385178-6.6272431-5.5049181-10.9397758-7.33011-4.6137152-1.9507707-10.0830861-2.9391793-16.2584908-2.9391793-7.5518604,0-14.3401651,1.591937-20.1756084,4.730892-5.832341,3.1368222-10.4314495,7.5989121-13.671876,13.2617895-3.2372595,5.6628774-4.878381,12.2472052-4.878381,19.5710459,0,7.2307714,1.6160445,13.7670135,4.8041195,19.4267885,3.1849727,5.6597104,7.7109184,10.1458432,13.4501255,13.3339182,5.7402412,3.1871055,12.4281732,4.8030854,19.8806305,4.8030854,6.4703826,0,12.2388677-.8921724,17.1454926-2.6525389,4.6503613-1.6683313,8.9252785-4.4296449,12.7033092-8.2056074.353534-.353534.4151924-.9037414.1495571-1.3273359l-6.3144915-10.0465047ZM330.9395971,74.6918445c-5.7371389-3.1389551-12.426105-4.730892-19.879661-4.730892-7.4556242,0-14.1194487,1.591937-19.806369,4.730892-5.6890531,3.1389551-10.1898572,7.601045-13.3768981,13.2617895-3.188075,5.6618433-4.8041195,12.1980853-4.8041195,19.427758,0,7.2297373,1.6160445,13.7900222,4.8041195,19.4989172,3.1849727,5.7068268,7.7108538,10.2170024,13.4500609,13.4050774,5.7403058,3.1871055,12.3790533,4.8030854,19.7332062,4.8030854,7.4525219,0,14.1404539-1.6159799,19.879661-4.8030854,5.7361048-3.1860068,10.2368443-7.6961824,13.3768335-13.4050774,3.1389551-5.7099291,4.7298579-12.270214,4.7298579-19.4989172,0-7.2286386-1.5909029-13.7648806-4.7298579-19.427758-3.1420574-5.6617786-7.6428615-10.1238685-13.3768335-13.2617895ZM329.757682,119.7112608c-1.8179531,3.997713-4.4286754,7.2056298-7.7600383,9.5339774-3.3324616,2.3314499-7.2610836,3.5134296-11.6771559,3.5134296-6.3751805,0-11.4722096-2.2425817-15.1498031-6.6669914-3.6786922-4.4255085-5.5436324-10.237943-5.5436324-17.2772761,0-5.0447423.9204809-9.6271113,2.7352025-13.6195245,1.8136874-3.9955802,4.4233757-7.1795187,7.7590042-9.4628828,3.3334957-2.2832995,7.2621177-3.4412363,11.6771559-3.4412363,6.3730476,0,11.4711109,2.19553,15.1508372,6.5237035,3.6775935,4.3313405,5.5425336,10.0956892,5.5425336,17.1329541,0,5.1367128-.9204163,9.7672322-2.7341037,13.7638465ZM604.3217275,37.8455907c-3.282243,0-5.9170728,1.0313239-8.0550162,3.1535618-2.1389775,2.1223025-3.1787034,4.7487303-3.1787034,8.0288404,0,3.0897705,1.039726,5.6220949,3.1787034,7.7422647,2.1369093,2.1233366,4.7716745,3.1546605,8.0550162,3.1546605,3.282243,0,5.9170082-1.0324226,8.0570198-3.1546605,2.1369093-2.1233366,3.1766352-4.6555964,3.1766352-7.7422647,0-3.2780419-1.039726-5.9044697-3.1776693-8.0288404-2.1400116-2.1222379-4.7758755-3.1535618-8.0559857-3.1535618ZM788.766345,59.9249181c3.282243,0,5.9170082-1.0324226,8.0570844-3.1546605,2.1369093-2.1233366,3.1765706-4.6555964,3.1765706-7.7422647,0-3.2780419-1.0396613-5.9044697-3.1776047-8.0288404-2.1400762-2.1222379-4.7758755-3.1535618-8.0560503-3.1535618-3.282243,0-5.9170082,1.0313239-8.0549515,3.1535618-2.1390421,2.1223025-3.1787034,4.7487303-3.1787034,8.0288404,0,3.0897705,1.0396613,5.6220949,3.1787034,7.7422647,2.1369093,2.1233366,4.7716745,3.1546605,8.0549515,3.1546605ZM417.3666957,122.8564851c-.176767-.2803065-.4727143-.4633428-.8022054-.4957878-.0356119-.0031669-.0701251-.0052351-.1046383-.0052351-.2938792,0-.5763185.1202791-.7791966.3367944-3.1881396,3.3826802-6.4369035,5.9003333-9.6563893,7.4849669-3.484087,1.7132502-7.6355581,2.5814443-12.3413086,2.5814443-6.5708198,0-11.8675601-2.2425817-15.7418271-6.6669914-3.8742669-4.4223415-5.8386103-10.1866903-5.8386103-17.1329541,0-4.9495402.9947425-9.5329433,2.9569529-13.6205586,1.9622751-4.0928505,4.7215205-7.3248748,8.2025051-9.6061707,3.4798859-2.2832995,7.4838682-3.4412363,11.8989064-3.4412363,2.6462696,0,5.1325118.4341294,7.3907989,1.2907545,2.2540214.855591,4.3177032,2.0856565,6.1335235,3.6556188,1.5323468,1.3273359,2.9977354,2.9297431,4.3543493,4.763337.2019086.2740373.5219635.4340647.8608261.4340647h.0303768c.350367-.0104703.6735889-.1913737.8659966-.4842834l6.802976-10.3874355c.2740373-.419458.2217505-.9727678-.1275825-1.332571-2.9464827-3.0385178-6.6272431-5.5049181-10.9397758-7.33011-4.6137799-1.9507707-10.0830861-2.9391793-16.2584908-2.9391793-7.5518604,0-14.3401651,1.591937-20.1756084,4.730892-5.832341,3.1368222-10.4314495,7.5989121-13.671876,13.2617895-3.2372595,5.6628774-4.878381,12.2472052-4.878381,19.5710459,0,7.2307714,1.6160445,13.7670135,4.8041195,19.4267885,3.1849727,5.6597104,7.7109184,10.1458432,13.4501255,13.3339182,5.7402412,3.1871055,12.4281732,4.8030854,19.8806951,4.8030854,6.4703179,0,12.2388031-.8921724,17.145428-2.6525389,4.6503613-1.6683313,8.9252139-4.4296449,12.7032446-8.2056074.353534-.353534.415257-.9037414.1496218-1.3273359l-6.3145562-10.0465047ZM694.598016,140.8408292l-.2332549-.1966735c-4.4808976-4.6377581-7.2307714-7.5843054-8.4252897-9.0329545l-23.6492897-26.9545414,22.6148635-23.9431688c2.4057114-2.488375,4.8061877-4.9097919,7.1345352-7.1972924.3095846-.3044141.4047867-.7667228.2405582-1.1694412-.1652626-.4026539-.5564767-.6651868-.9915755-.6651868h-18.5481241c-.4372317,0-.8315481.2656352-.9936437.6725547-.2332549.5794208-.4560394,1.0783756-.6610504,1.4779271-.2479262.4790482-.711269,1.1871503-1.4047643,2.1504819-1.1756459,1.8063841-2.8972981,3.8136427-5.1733589,6.0216465l-19.510357,21.9359749V38.2253004c0-.2887086-.1161427-.5648788-.3232218-.7667228-.1997758-.1955747-.4685779-.3043494-.7478504-.3043494-.0084021,0-15.9573083.3765428-15.9573083.3765428-.3075164.0073034-.5971945.1463902-.7949021.382812-.1987417.2353231-.2855417.5449077-.23849.8493217.3336921,2.2017346.5899558,3.903545.7677569,5.1043325.1945406,1.3189338.3440978,2.7425058.4435009,4.228835.0983044,1.5114062.148523,3.7068715.148523,6.5237035v76.4182739c0,2.7330696-.0502186,4.8313293-.148523,6.236029-.0878988,1.2258645-.1757329,2.9004651-.2625975,4.9777841-.0125385.2918109.0952021.5763185.2971107.7865646.201844.2101814.4811164.3294264.7729274.3294264h15.9803171c.3190208,0,.6223361-.1422538.8252142-.3880472.2039768-.2468275.2866404-.5700493.2269856-.8838349-.382812-2.0009247-.6411439-3.5991309-.7677569-4.7496998-.1474243-1.3315369-.2216858-3.4537748-.2216858-6.3082223v-23.3700172l29.9794866,35.3222445c.2039122.2395241.502057.3775769.8168768.3775769h18.8462043c.4466679,0,.8462194-.2771396,1.0030799-.6955635.1569251-.4183593.036646-.8901042-.3001484-1.1829492l-.7447481-.6485119ZM797.4876467,128.4566054v-55.9560898c0-.2896781-.1171768-.5679165-.3253547-.768791-.2008099-.1945406-.4675438-.3022812-.7457175-.3022812-.0115044,0-15.9416028.5021216-15.9416028.5021216-.3075164.0093716-.5951263.1505913-.7917998.3869484-.1955747.2364218-.2803065.5460064-.2332549.8493217.3232218,2.0459728.5700493,3.6525165.743714,4.8219577.1945406,1.321002.3440978,2.744574.4435009,4.2298691.0983044,1.4894315.1474243,3.6357769.1474243,6.3793169v39.8576264c0,3.3240595-.0993385,5.857418-.2949133,7.5278175-.1799339,1.5166413-.4780141,3.5834901-.8828008,6.1450279-.0491845.3095846.0397483.624469.2426264.862959.2039768.2384254.5010229.375444.8148085.375444h16.8202026c.3085505,0,.6024943-.1328176.8053724-.3650384.2039768-.2321561.2970461-.5407712.2562637-.8461548-.3336275-2.5239223-.5878229-4.5332491-.7635558-6.0289498-.1987417-1.6735665-.2949133-4.1828174-.2949133-7.6711054ZM770.4368691,140.8408292l-.2332549-.1966735c-4.4809623-4.6377581-7.2307714-7.5843054-8.4252897-9.0329545l-23.6492897-26.9545414,22.6148635-23.9431688c2.4057114-2.488375,4.8061877-4.9097919,7.1345352-7.1972924.3095846-.3044141.4047867-.7667228.2405582-1.1694412-.1652626-.4026539-.5564767-.6651868-.9915755-.6651868h-18.5481241c-.4372317,0-.8315481.2656352-.9937084.6725547-.2331902.5794208-.4560394,1.0783756-.6610504,1.4779271-.2478616.4790482-.7112043,1.1871503-1.4046997,2.1504819-1.1756459,1.8063841-2.8973628,3.8136427-5.1733589,6.0216465l-19.5104216,21.9359749V38.2253004c0-.2887086-.1160781-.5648788-.3231572-.7667228-.1998404-.1955747-.4686426-.3043494-.747915-.3043494-.0083375,0-15.9572436.3765428-15.9572436.3765428-.3075164.0073034-.5972591.1463902-.7949021.382812-.1987417.2353231-.2856063.5449077-.23849.8493217.3336275,2.2017346.5898911,3.903545.7676922,5.1043325.1946053,1.3189338.3441624,2.7425058.4435009,4.228835.0983044,1.5114062.148523,3.7068715.148523,6.5237035v76.4182739c0,2.7330696-.0502186,4.8313293-.148523,6.236029-.0878341,1.2258645-.1757329,2.9004651-.2625329,4.9777841-.0125385.2918109.0952021.5763185.2970461.7865646.2019086.2101814.4811811.3294264.772992.3294264h15.9802524c.3190208,0,.6223361-.1422538.8252788-.3880472.2039768-.2468275.2865758-.5700493.2269856-.8838349-.382812-2.0009247-.6412085-3.5991309-.7677569-4.7496998-.1474889-1.3315369-.2217505-3.4537748-.2217505-6.3082223v-23.3700172l29.9794866,35.3222445c.2039768.2395241.502057.3775769.8169414.3775769h18.8462043c.4466032,0,.8461548-.2771396,1.0030799-.6955635.1568605-.4183593.0365814-.8901042-.300213-1.1829492l-.7446834-.6485119ZM485.2206577,74.6918445c-5.7371389-3.1389551-12.426105-4.730892-19.879661-4.730892-7.4556242,0-14.1194487,1.591937-19.806369,4.730892-5.6890531,3.1389551-10.1898572,7.601045-13.3768981,13.2617895-3.188075,5.6618433-4.8041195,12.1980853-4.8041195,19.427758,0,7.2297373,1.6160445,13.7900222,4.8041195,19.4989172,3.1849727,5.7068268,7.7108538,10.2170024,13.4500609,13.4050774,5.7403058,3.1871055,12.3790533,4.8030854,19.7332062,4.8030854,7.4525219,0,14.1404539-1.6159799,19.879661-4.8030854,5.7361048-3.1860068,10.2368443-7.6961824,13.3768335-13.4050774,3.1389551-5.7099291,4.7298579-12.270214,4.7298579-19.4989172,0-7.2286386-1.5909029-13.7648806-4.7298579-19.427758-3.1420574-5.6617786-7.6428615-10.1238685-13.3768335-13.2617895ZM484.0387426,119.7112608c-1.8178885,3.997713-4.4286754,7.2056298-7.7600383,9.5339774-3.3324616,2.3314499-7.2610836,3.5134296-11.6771559,3.5134296-6.3751805,0-11.4722096-2.2425817-15.1498031-6.6669914-3.6786922-4.4255085-5.5436324-10.237943-5.5436324-17.2772761,0-5.0447423.9204809-9.6271113,2.7352025-13.6195245,1.8136874-3.9955802,4.4233757-7.1795187,7.7590042-9.4628828,3.3334957-2.2832995,7.2621177-3.4412363,11.6771559-3.4412363,6.3740817,0,11.4711109,2.19553,15.1508372,6.5237035,3.6775935,4.3313405,5.5425336,10.0956892,5.5425336,17.1329541,0,5.1367128-.9204163,9.7682664-2.7341037,13.7638465ZM581.6639487,128.4566054v-31.5422102c0-5.8019642-1.267681-10.7702475-3.7685945-14.7669264-2.4998794-3.9924132-5.9797653-7.0550386-10.3467177-9.1040491-4.3668878-2.0459082-9.4638523-3.0824672-15.1507726-3.0824672-5.1032984,0-9.6030684.8681295-13.375864,2.5804102-3.7748638,1.7122161-6.7338849,3.834454-8.7944645,6.3082223l-.3807438-6.2789443c-.0345132-.566947-.5041252-1.0062469-1.0689394-1.0062469-.0084021,0-14.8485559.3744746-14.8485559.3744746-.3012471.0083375-.5857547.1422538-.7834623.3713076-.1976429.2280197-.288644.5292668-.2520626.8294799.3430637,2.8240707.62867,5.0373743.8524887,6.6428839.2457934,1.772905.3702735,4.5949721.3702735,8.3865755v40.2874901c0,3.3093882-.0502186,5.8427467-.148523,7.5288516-.089967,1.5229106-.2207164,3.6211056-.39018,6.2422982-.0188077.2949779.0847318.5857547.2876745.8012359.2028781.2165153.4853175.3388626.7813295.3388626h15.877747c.3075164,0,.6004261-.1328176.8043383-.3639396.2029427-.2311867.2970461-.538703.2583965-.8441512-.2374559-1.8439996-.4204921-3.2811442-.5470405-4.3124681-.1527241-1.2310996-.2761701-2.4601311-.3692394-3.6546493-.1004373-1.2561766-.148523-3.1326212-.148523-5.7360402v-22.7958315c0-4.7570031.8451207-8.9534578,2.5124179-12.4731567,1.6682667-3.5217025,4.0300933-6.2464346,7.0215595-8.1009691,2.990432-1.8555686,6.4964937-2.7958914,10.4198805-2.7958914,5.0007929,0,8.7307379,1.4957654,11.0862306,4.4443162,2.3534246,2.9496496,3.5468441,7.5330527,3.5468441,13.6205586v7.8855525c0,8.0005965-.0742615,14.0776968-.2217505,18.065909-.1411551,3.8366515-.444535,9.1920124-.9047109,15.9165258-.0199065.296012.0836331.5878229.2865758.8043383.201844.2165153.4853175.3398967.7823636.3398967h15.9300984c.296012,0,.5783867-.1223473.7813295-.3388626.2028781-.2154812.3064823-.505224.2876099-.8012359-.1652626-2.5584355-.2708704-4.6095788-.3127515-6.1000444-.050154-1.6212796-.0742615-4.1305306-.0742615-7.6711054ZM613.0429646,128.4566054v-55.9560898c0-.2896781-.1171768-.5679165-.32529-.768791-.2008099-.1945406-.4675438-.3022812-.7457822-.3022812-.0115044,0-15.9415382.5021216-15.9415382.5021216-.3075164.0093716-.5951909.1505913-.7917998.3869484-.1956394.2364218-.2803712.5460064-.2332549.8493217.3231572,2.0459728.5700493,3.6525165.7436493,4.8219577.1945406,1.321002.3441624,2.744574.4435009,4.2298691.0983044,1.4894315.1474889,3.6357769.1474889,6.3793169v39.8576264c0,3.3240595-.0994032,5.857418-.2949779,7.5278175-.1798693,1.5166413-.4780141,3.5834901-.8828008,6.1450279-.0491199.3095846.0397483.624469.2426911.862959.2039768.2384254.5010229.375444.8148085.375444h16.820138c.3086151,0,.6024943-.1328176.805437-.3650384.2039768-.2321561.2970461-.5407712.2562637-.8461548-.3336921-2.5239223-.5878229-4.5332491-.7635558-6.0289498-.1987417-1.6735665-.2949779-4.1828174-.2949779-7.6711054Z"/>
</svg>