<?xml version="1.0" encoding="UTF-8"?>
<svg id="_レイヤー_1" data-name="レイヤー_1" xmlns="http://www.w3.org/2000/svg" version="1.1" viewBox="0 0 640 640">
  <!-- Generator: Adobe Illustrator 30.4.0, SVG Export Plug-In . SVG Version: 2.1.4 Build 226)  -->
  <defs>
    <style>
      .st0 {
        fill: #ca806e;
      }
    </style>
  </defs>
  <path class="st0" d="M113.8468072,464.2862315c19.9404887,0,44.8408141-9.8621935,57.9207665-22.9399353l25.1219539-25.1230593c5.505894,6.718495,11.6678305,13.0622664,18.3631125,18.9008795,24.1016888,21.0187862,67.081597,46.0744173,134.9684627,46.0744173,111.2321017,0,195.1126996-80.9601859,195.1126996-188.3206969,0-60.0364624-26.2273331-113.5340539-73.96203-151.1373975l57.8013856-57.8019383c9.1193787-9.1166152,13.2977122-19.257917,12.4178303-30.1425864-.7936623-9.8185311-5.8375077-19.4397519-14.9922586-28.5967135-9.5294744-9.5272636-19.5530533-14.6092447-29.7932865-15.1055599-10.2667623-.496868-20.251653,3.8384294-28.9432499,12.5327898l-78.7284253,78.7267672c-67.1274702-15.2719195-133.178301-2.6612005-181.5110081,34.7393059-47.5500986,36.7931005-73.7370853,92.4738161-73.7370853,156.7853327,0,24.1061104,9.3636675,37.6552963,18.575898,45.1497676l-42.0364669,42.0364669c-12.8483755,12.8456121-18.5543432,31.948776-20.4113803,39.5659443-3.0950619,12.699702-4.9532044,29.6683787,3.7660271,38.3853993,4.0992989,4.1020623,11.038317,6.2708164,20.0670546,6.2708164ZM493.8839259,207.6199366c15.7383896,25.3115264,23.7181222,53.9961176,23.7181222,85.2579004,0,45.4758544-17.4926264,86.7286075-49.2545933,116.1593296-30.9207733,28.6514298-72.8721261,44.429613-118.126352,44.429613-59.2969637,0-96.2127613-21.3404515-116.7402064-39.2420682-16.5077335-14.3964592-35.7849947-39.4753032-35.7849947-62.7711706,0-35.1820103,27.26031-38.9800934,38.980646-38.9800934,4.6939929,0,14.6440641,2.7347082,24.3117109,5.3920399,30.077369,8.2682367,71.2715369,19.5917416,96.3492757-5.491524,2.6197488-2.6186434,4.0622687-6.100588,4.0622687-9.8047138,0-3.7035731-1.4425199-7.1860704-4.0611633-9.8025031-5.2649213-5.2704482-13.6249045-5.3378763-19.44141-.1591746-6.0110523,5.3489301-13.6414851,7.67299-24.7195958,7.3270063l138.4122717-138.4122717c17.2361784,13.1705936,31.4546715,28.665247,42.2940203,46.0976302ZM487.4694102,42.2342008c4.1661743-4.1656216,8.4727318-8.4716265,19.5232081,2.5755336,11.0449493,11.0460547,6.7372864,15.354823,2.5733229,19.5209973l-229.8553216,229.8553216c-4.0810601-1.0556372-8.0808749-2.1560422-11.4290686-3.0768231-8.9386492-2.4561527-17.0012853-4.6718853-23.960753-5.723101L487.4694102,42.2342008ZM224.5930947,158.023781c37.8299463-29.2721002,87.5874872-40.8559219,140.8114973-32.9419593l-193.1213589,193.1241223c-5.2986354-3.1586212-10.6658042-10.1147727-10.6658042-25.3281071,0-55.5364635,22.3651381-103.428677,62.9756658-134.8540559ZM130.0328753,399.6734991l40.3883465-40.3883465c1.2242075,10.7022818,4.8907504,22.0677911,10.7967917,33.3935067l-29.08916,29.0869492h-.0005527c-9.5576616,9.5582142-27.5930292,14.1201144-36.9130342,14.8153979.6936255-9.3161362,5.2549729-27.3448715,14.8176086-36.9075073ZM608.3991421,626.41704l-.2494012-.2101602c-4.7896082-4.9574877-7.729088-8.1070586-9.005801-9.6556258l-25.2794704-28.8124006,24.1735385-25.5934672c2.5716648-2.6598879,5.1375263-5.2482024,7.6262877-7.6933704.3310611-.325396.432756-.8195696.257277-1.2500457-.1765843-.430407-.5948322-.7110352-1.0599205-.7110352h-19.8264965c-.4674372,0-.8890012.2839443-1.0622694.718911-.249263.6193578-.4874722,1.1527033-.7066137,1.5797942-.2650147.5120669-.7602246,1.2689754-1.5015195,2.2987052-1.256678,1.9308903-3.0971344,4.0765004-5.529936,6.4366924l-20.85519,23.4479952v-70.2444324c0-.308539-.1240788-.6037443-.3455692-.8195005-.2134764-.2090548-.5007368-.3253269-.7993274-.3253269-.0089812,0-17.057107.4024962-17.057107.4024962-.3287122.0078067-.6384947.1564802-.8497603.4091976-.212371.2515429-.3052228.5824658-.2549281.9078618.3567611,2.3534906.6306189,4.1725994.8207441,5.4561519.2078113,1.4098421.3678149,2.9315348.4739313,4.5203102.1051492,1.6155808.1588983,3.96237.1588983,6.9732849v81.685522c0,2.9215173-.0537491,5.1643318-.1588983,6.6658513-.0938191,1.310358-.1877763,3.1003815-.28049,5.3208811-.0135409.3119242.1016949.6160417.3175202.8407791s.5142777.3522015.826271.3522015h17.0817017c.3410095,0,.665162-.1520587.8820926-.4147936.2180361-.2639093.3063282-.6094094.2426307-.9448229-.4092667-2.1388397-.6853351-3.8472033-.8207441-5.0770759-.1575165-1.4233139-.2369657-3.6918285-.2369657-6.7430206v-24.9808108l32.0459112,37.7568531c.2180361.2560335.5366616.4036707.8731114.4036707h20.1452602c.4773857,0,.9044766-.2963107,1.0722179-.7435057.1676031-.4472641.0391028-.9515243-.3209745-1.2645538l-.7960112-.693211ZM527.3331161,626.41704l-.2494012-.2101602c-4.7897464-4.9574877-7.729088-8.1070586-9.0059391-9.6556258l-25.2793322-28.8124006,24.1735385-25.5934672c2.5716648-2.6598879,5.1375263-5.2482024,7.6262877-7.6933704.3310611-.325396.432756-.8195696.257277-1.2500457-.1767225-.430407-.5949704-.7110352-1.0600587-.7110352h-19.8264965c-.4674372,0-.8888631.2839443-1.0621313.718911-.249263.6193578-.4874722,1.1527033-.7066137,1.5797942-.2650147.5120669-.7602246,1.2689754-1.5016577,2.2987052-1.2565398,1.9308903-3.0969963,4.0765004-5.529936,6.4366924l-20.85519,23.4479952v-70.2444324c0-.308539-.1240788-.6037443-.345431-.8195005-.2134764-.2090548-.500875-.3253269-.7994655-.3253269-.008843,0-17.057107.4024962-17.057107.4024962-.328574.0078067-.6383565.1564802-.8496221.4091976-.212371.2515429-.3052228.5824658-.2549281.9078618.356623,2.3534906.6306189,4.1725994.8207441,5.4561519.2078113,1.4098421.3678149,2.9315348.4739313,4.5203102.1051492,1.6155808.1587601,3.96237.1587601,6.9732849v81.685522c0,2.9215173-.0536109,5.1643318-.1587601,6.6658513-.0939572,1.310358-.1877763,3.1003815-.2806282,5.3208811-.0134027.3119242.1018331.6160417.3175202.8407791.2158253.2247374.5144159.3522015.826271.3522015h17.0817017c.3410095,0,.6653001-.1520587.8822308-.4147936.2180361-.2639093.3063282-.6094094.2426307-.9448229-.4092667-2.1388397-.6853351-3.8472033-.8207441-5.0770759-.1576547-1.4233139-.2371038-3.6918285-.2371038-6.7430206v-24.9808108l32.0459112,37.7568531c.2180361.2560335.5367998.4036707.8732496.4036707h20.145122c.4775238,0,.9046147-.2963107,1.0722179-.7435057.1677413-.4472641.039241-.9515243-.3208363-1.2645538l-.7960112-.693211ZM627.9921272,539.9238783c3.5084737,0,6.3247036-1.1035139,8.612286-3.3720284,2.2842662-2.269689,3.3955868-4.9764864,3.3955868-8.2759052,0-3.5039831-1.1113206-6.3114391-3.3966922-8.5822335-2.2875823-2.2685145-5.1049177-3.3709231-8.6111806-3.3709231-3.5084737,0-6.32498,1.1024085-8.6103516,3.3709231-2.2863388,2.2685836-3.3976594,5.0760396-3.3976594,8.5822335,0,3.302735,1.1113206,6.0096015,3.3976594,8.2759052,2.2842662,2.2696199,5.1007725,3.3720284,8.6103516,3.3720284ZM66.0795707,607.1931134c-.1889508-.2996269-.5053656-.495279-.857567-.5299603-.0379974-.0033161-.0748894-.005596-.1117815-.005596-.314135,0-.6160417.1285694-.8329723.3600082-3.4078151,3.6158337-6.8805021,6.3070176-10.3218931,8.0008731-3.724299,1.831337-8.1618439,2.759372-13.1920103,2.759372-7.0236487,0-12.6855394-2.397153-16.8267736-7.1265181-4.1413033-4.7271543-6.2410402-10.8888145-6.2410402-18.3138541,0-5.2906214,1.0633057-10.1900076,3.1607628-14.5593644,2.0974571-4.3749528,5.0468852-7.8297466,8.767799-10.2682822,3.7198084-2.4406774,7.9997677-3.6784257,12.7190462-3.6784257,2.8287345,0,5.4863426.464052,7.9002145,1.3797205,2.4094504.9145631,4.6153728,2.2294117,6.5563497,3.9075847,1.6379648,1.4188233,3.2043562,3.1317466,4.6544756,5.0916531.2157562.2929255.5578711.4639829.9201591.4639829h.0324014c.3745854-.0111229.7200164-.2045642.9257551-.5175938l7.2718755-11.1034653c.2929255-.4483695.2370348-1.0398164-.1363762-1.4244193-3.1495709-3.2479496-7.0840301-5.8843482-11.6938069-7.8354116-4.9317876-2.0851598-10.7781384-3.141695-17.3791178-3.141695-8.0723773,0-15.3286393,1.7016622-21.5662943,5.0569718-6.2342698,3.3530297-11.1503749,8.1226721-14.6141498,14.1758669-3.4603897,6.0531949-5.2146265,13.0913517-5.2146265,20.920062,0,7.729157,1.7273623,14.7159138,5.1352465,20.7657234,3.404499,6.0498096,8.2423294,10.845152,14.377115,14.2530362,6.1359601,3.4067097,13.2847931,5.1341411,21.2509849,5.1341411,6.9163579,0,13.0824396-.953735,18.3272568-2.8354359,4.9708904-1.7833221,9.54039-4.734961,13.578824-8.7711842.3779015-.3779015.4438788-.9660324.1598655-1.4188233l-6.749722-10.7389665ZM406.6150643,613.1792255v-33.7162083c0-6.2019375-1.3551949-11.5126629-4.0284165-15.7848155-2.6721161-4.2675929-6.3919936-7.5413117-11.0598719-9.7315515-4.6678783-2.1869237-10.1162235-3.2949282-16.1951184-3.2949282-5.4549774,0-10.264897.9279659-14.297735,2.7581975-4.0350487,1.8303008-7.1980914,4.0988153-9.4006286,6.7430897l-.4069868-6.7117245c-.036892-.6060242-.5388724-1.0756031-1.1426858-1.0756031-.0089121,0-15.8719332.4002855-15.8719332.4002855-.3220108.0089121-.6261283.1520587-.8374629.3969002-.2112656.2437361-.308539.5657469-.2694362.8865832.3667096,3.0187907.6719324,5.3845786.911247,7.100818.2627348,1.8951036.3957949,4.9116835.3957949,8.9646256v43.0643315c0,3.537559-.05368,6.2454618-.1587601,8.0477826-.096168,1.6278782-.2359294,3.8707617-.4170734,6.6726218-.0201041.3152403.090572.6260592.3075027.8563926.2168616.2314388.5187683.362288.8351831.362288h16.9721309c.3287122,0,.6417417-.1420412.8597778-.3890935.2169307-.2471213.3175202-.5758335.2761376-.9022658-.2537536-1.9711675-.4494057-3.5073683-.5847456-4.6097768-.1631816-1.315954-.2951363-2.6296972-.3946204-3.9065484-.10736-1.3427594-.1587601-3.3485391-.1587601-6.1314004v-24.3669799c0-5.0849517.9033712-9.5706498,2.6855879-13.3328771,1.7832531-3.7645072,4.3078701-6.6771124,7.505525-8.6594028,3.1964804-1.9834649,6.9442687-2.9886,11.1380775-2.9886,5.3454758,0,9.3324405,1.598862,11.8503563,4.7506436,2.5156359,3.1529561,3.7913126,8.0522732,3.7913126,14.5594335v8.4290003c0,8.5520428-.07938,15.0480111-.2370348,19.3111825-.1509534,4.101026-.4751749,9.8255088-.9671377,17.0135136-.0212095.3164148.0894666.628339.3063973.8597778.2157562.2314388.5187683.3633934.8362885.3633934h17.0280908c.3164148,0,.6181833-.1308493.835114-.362288.2169307-.2303334.3276068-.5400468.3075718-.8563926-.1767225-2.7347773-.2896094-4.927297-.3343772-6.520563-.0536109-1.7329583-.079311-4.4152301-.079311-8.1998413ZM637.314343,613.1792255v-59.8128995c0-.3097134-.1251842-.6070605-.3476418-.8217804-.2147199-.2079495-.4997696-.3231162-.7972548-.3231162-.0121592,0-17.0402499.5366616-17.0402499.5366616-.3287122.0100866-.6361457.1610399-.8464441.4136882-.2089167.2527173-.2995578.5836402-.249263.9078618.345431,2.1869237.6093403,3.9042685.795044,5.1543143.2078113,1.4120529.3678149,2.9337456.4739313,4.5214156.1051492,1.5920915.1576547,3.8863752.1576547,6.8190154v42.6048391c0,3.5531725-.1062546,6.2611443-.3153094,8.0466772-.1921978,1.6211768-.5108234,3.8304845-.9435793,6.5685779-.0525055.330992.0425571.6675109.2593496.922439.2180361.2549281.5355562.4013908.8709007.4013908h17.979546c.3299557,0,.6441597-.1420412.8609523-.3901989.2180361-.2482267.3175202-.5780443.2739959-.9045456-.3567611-2.6978853-.6284081-4.8456371-.8163226-6.4444991-.212371-1.7889181-.3153094-4.4711208-.3153094-8.1998413ZM430.834476,516.3227881c-3.5084737,0-6.32498,1.1024085-8.6102134,3.3709231-2.2864769,2.2685836-3.3977976,5.0760396-3.3977976,8.5822335,0,3.302735,1.1113206,6.0096015,3.3977976,8.2759052,2.284128,2.2696199,5.1006343,3.3720284,8.6102134,3.3720284,3.5084737,0,6.3248418-1.1035139,8.612286-3.3720284,2.2842662-2.269689,3.395725-4.9764864,3.395725-8.2759052,0-3.5039831-1.1114588-6.3114391-3.3968304-8.5822335-2.2874442-2.2685145-5.1049177-3.3709231-8.6111806-3.3709231ZM440.15683,613.1792255v-59.8128995c0-.3097134-.1253224-.6070605-.3477799-.8217804-.2145817-.2079495-.4996314-.3231162-.7971166-.3231162-.0122973,0-17.0403881.5366616-17.0403881.5366616-.3287122.0100866-.6361457.1610399-.8464441.4136882-.2089167.2527173-.2995578.5836402-.249263.9078618.345431,2.1869237.6093403,3.9042685.795044,5.1543143.2078113,1.4120529.3678149,2.9337456.4739313,4.5214156.1051492,1.5920915.1577929,3.8863752.1577929,6.8190154v42.6048391c0,3.5531725-.1063928,6.2611443-.3153094,8.0466772-.192336,1.6211768-.5109616,3.8304845-.9437175,6.5685779-.0525055.330992.0425571.6675109.2594878.922439.2178979.2549281.5355562.4013908.8709007.4013908h17.9794078c.3299557,0,.6441597-.1420412.8610904-.3901989.2178979-.2482267.3175202-.5780443.2738577-.9045456-.3567611-2.6978853-.6284081-4.8456371-.8161844-6.4444991-.212371-1.7889181-.3153094-4.4711208-.3153094-8.1998413ZM303.524288,555.7086938c-6.1325749-3.3553096-13.2825823-5.0569718-21.2498795-5.0569718-7.9695079,0-15.0927099,1.7016622-21.1716048,5.0569718-6.0811057,3.3553096-10.8921306,8.1249519-14.2988404,14.1758669-3.4078842,6.0520895-5.1352465,13.0388462-5.1352465,20.7668288,0,7.7280517,1.7273623,14.7405084,5.1352465,20.8428927,3.404499,6.1001735,8.2423294,10.9212159,14.377115,14.3291001,6.1359601,3.4067097,13.2322876,5.1341411,21.0933302,5.1341411,7.9661918,0,15.1150938-1.7274314,21.2498795-5.1341411,6.1314004-3.4056043,10.9424254-8.2267159,14.2988404-14.3291001,3.3553096-6.1034896,5.0558664-13.1159464,5.0558664-20.8428927,0-7.7268772-1.7005569-14.7136339-5.0558664-20.7668288-3.3586257-6.0520204-8.1696507-10.8216627-14.2988404-14.1758669ZM302.2608395,603.8311024c-1.9431876,4.273258-4.7338557,7.7023516-8.2948349,10.1911129-3.5621537,2.4921466-7.7616276,3.755595-12.4820805,3.755595-6.8145248,0-12.26287-2.397153-16.193944-7.1265181-3.9322485-4.7305395-5.9257308-10.9435999-5.9257308-18.4681236,0-5.3923853.9839257-10.2905971,2.9237281-14.558259,1.938697-4.2709781,4.7282597-7.6743717,8.2937986-10.1151181,3.5632591-2.4406774,7.7626639-3.6784257,12.4820114-3.6784257,6.8134194,0,12.2617646,2.3468583,16.1951184,6.973354,3.931074,4.6298809,5.9245564,10.7915411,5.9245564,18.3138541,0,5.4907641-.9838566,10.4415504-2.9226227,14.7125285ZM138.6093055,555.7086938c-6.1325749-3.3553096-13.2825823-5.0569718-21.2498795-5.0569718-7.9695079,0-15.0927099,1.7016622-21.1716048,5.0569718-6.0811057,3.3553096-10.8921306,8.1249519-14.2988404,14.1758669-3.4078842,6.0520895-5.1352465,13.0388462-5.1352465,20.7668288,0,7.7280517,1.7273623,14.7405084,5.1352465,20.8428927,3.404499,6.1001735,8.2423294,10.9212159,14.377115,14.3291001,6.135891,3.4067097,13.2322185,5.1341411,21.0933302,5.1341411,7.9661918,0,15.1150247-1.7274314,21.2498795-5.1341411,6.1314004-3.4056043,10.9424254-8.2267159,14.2988404-14.3291001,3.3553096-6.1034896,5.0558664-13.1159464,5.0558664-20.8428927,0-7.7268772-1.7005569-14.7136339-5.0558664-20.7668288-3.3586257-6.0520204-8.1696507-10.8216627-14.2988404-14.1758669ZM137.3458571,603.8311024c-1.9431876,4.273258-4.7338557,7.7023516-8.294904,10.1911129-3.5620846,2.4921466-7.7615585,3.755595-12.4820114,3.755595-6.8145939,0-12.26287-2.397153-16.193944-7.1265181-3.9322485-4.7305395-5.9257308-10.9435999-5.9257308-18.4681236,0-5.3923853.9838566-10.2905971,2.9237281-14.558259,1.938697-4.2709781,4.7282597-7.6743717,8.2937295-10.1151181,3.5632591-2.4406774,7.7627329-3.6784257,12.4820114-3.6784257,6.8123831,0,12.2618337,2.3468583,16.1951184,6.973354,3.9311431,4.6298809,5.9246254,10.7915411,5.9246254,18.3138541,0,5.4907641-.9839257,10.440445-2.9226227,14.7125285ZM230.9934477,607.1931134c-.1889508-.2996269-.5053656-.495279-.8574979-.5299603-.0380665-.0033161-.0749585-.005596-.1118506-.005596-.314135,0-.6160417.1285694-.8329723.3600082-3.4078151,3.6158337-6.8805021,6.3070176-10.3218931,8.0008731-3.724299,1.831337-8.1618439,2.759372-13.1920103,2.759372-7.0236487,0-12.6854703-2.397153-16.8267736-7.1265181-4.1413033-4.7271543-6.2410402-10.8888145-6.2410402-18.3138541,0-5.2906214,1.0633057-10.1900076,3.1607628-14.5593644,2.0974571-4.3749528,5.0469543-7.8297466,8.767799-10.2682822,3.7198084-2.4406774,7.9997677-3.6784257,12.7190462-3.6784257,2.8287345,0,5.4863426.464052,7.9002145,1.3797205,2.4094504.9145631,4.6153728,2.2294117,6.5563497,3.9075847,1.6379648,1.4188233,3.2043562,3.1317466,4.6544756,5.0916531.2157562.2929255.5579402.4639829.9201591.4639829h.0324014c.3745854-.0111229.7200855-.2045642.9257551-.5175938l7.2718755-11.1034653c.2929255-.4483695.2370348-1.0398164-.1363762-1.4244193-3.1495709-3.2479496-7.0840301-5.8843482-11.6938069-7.8354116-4.9317876-2.0851598-10.7780693-3.141695-17.3791178-3.141695-8.0723773,0-15.3286393,1.7016622-21.5662943,5.0569718-6.2342698,3.3530297-11.1503749,8.1226721-14.6141498,14.1758669-3.4603897,6.0531949-5.2146265,13.0913517-5.2146265,20.920062,0,7.729157,1.7274314,14.7159138,5.1352465,20.7657234,3.404499,6.0498096,8.2423294,10.845152,14.377115,14.2530362,6.1359601,3.4067097,13.2847931,5.1341411,21.2509849,5.1341411,6.9163579,0,13.0824396-.953735,18.3272568-2.8354359,4.9708904-1.7833221,9.54039-4.734961,13.578824-8.7711842.3779015-.3779015.4438788-.9660324.1598655-1.4188233l-6.749722-10.7389665Z"/>
</svg>